# xmcd
#
# Track frame offsets:
#	150
#	13263
#	31979
#	43114
#	62741
#	69908
#	85156
#	100764
#	121235
#	133000
#	138380
#	150377
#	165750
#	190201
#	198438
#	215145
#	250513
#
# Disc length: 3927 seconds
# Revision: 0
# Processed by: cddbd v1.5.2PL0 Copyright (c) Steve Scherf et al.
# Submitted via: dBpowerAMP V12.0
#
DISCID=e10f5511
DTITLE=Cláudio Levitan - Minha Milonga (Doze Canções Para Keidânia)
DYEAR=2000
DGENRE=Brazil
TTITLE0=Milonga da Pequena Keidânia
TTITLE1=Minha Longa Milonga
TTITLE2=Minha Loucura
TTITLE3=Passos Sobre a Mesa
TTITLE4=Milonga de Uma História Verídica
TTITLE5=Cartas
TTITLE6=Labirintos
TTITLE7=Cordas e Espinhos
TTITLE8=Milonga do Assim Contando
TTITLE9=Kleine Meidale
TTITLE10=Todas
TTITLE11=Pedro e Madalena
TTITLE12=Silêncio
TTITLE13=Milonga das Últimas Cartas
TTITLE14=A Carta Não Escrita
TTITLE15=A Resposta Não Virá
TTITLE16=Reunidos Por Uma Noite
EXTD=
EXTT0=
EXTT1=
EXTT2=
EXTT3=
EXTT4=
EXTT5=
EXTT6=
EXTT7=
EXTT8=
EXTT9=
EXTT10=
EXTT11=
EXTT12=
EXTT13=
EXTT14=
EXTT15=
EXTT16=
PLAYORDER=
